<?xml version="1.0" encoding="UTF-8"?>
<svg version="1.1" xmlns="http://www.w3.org/2000/svg" width="1024" height="1024">
<path d="M0 0 C15.09955455 -0.10319245 30.19853521 -0.14889804 45.29840755 -0.12697029 C52.31039986 -0.11811446 59.32143784 -0.12776539 66.33325195 -0.18164062 C73.1029338 -0.23360266 79.87101226 -0.23312091 86.64081001 -0.20095444 C89.22074329 -0.19720924 91.80076393 -0.2109062 94.38050652 -0.24249649 C115.6825323 -0.48565291 115.6825323 -0.48565291 120.53567505 3.17657471 C122.84189066 5.69478758 124.42194066 7.98798327 126 11 C126.91706276 12.24448899 127.8506081 13.47732608 128.8125 14.6875 C129.27914062 15.32816406 129.74578125 15.96882813 130.2265625 16.62890625 C132.63922543 19.85464721 135.16355057 22.98596712 137.6875 26.125 C142.319117 31.8854829 146.90629296 37.67765598 151.43432617 43.52001953 C153.50236376 46.17159094 155.60784196 48.64172522 158 51 C159.02011861 52.31800448 160.01755155 53.65368175 161 55 C167.22582318 63.25624882 173.65775609 71.3082886 180.26489258 79.26245117 C181.12183716 80.29462769 181.12183716 80.29462769 181.99609375 81.34765625 C182.75684204 82.26043335 182.75684204 82.26043335 183.53295898 83.19165039 C185 85 185 85 186.50024414 87.16577148 C187.95899361 89.2831438 187.95899361 89.2831438 191 90 C191.37706129 91.32163296 191.70518348 92.65762445 192 94 C193.11821704 95.74692174 193.11821704 95.74692174 194.5546875 97.3984375 C195.34564819 98.35496216 195.34564819 98.35496216 196.15258789 99.33081055 C197.00518188 100.34268433 197.00518188 100.34268433 197.875 101.375 C199.05959555 102.80516039 200.24317047 104.23616671 201.42578125 105.66796875 C202.02342285 106.38903809 202.62106445 107.11010742 203.23681641 107.85302734 C205.89637254 111.09148437 208.48380411 114.38452149 211.0625 117.6875 C214.63772595 122.26669495 214.63772595 122.26669495 218.30859375 126.76953125 C220 129 220 129 220 131 C220.66 131 221.32 131 222 131 C223.55800725 132.86290104 225.0039328 134.73180555 226.4375 136.6875 C230.04789727 141.50490981 233.76702921 146.18121422 237.6875 150.75 C241.3889717 155.06612862 244.96625944 159.44168804 248.3671875 164 C250.41531314 166.50870892 252.68421058 168.73916151 255 171 C255.54527344 170.33355469 256.09054687 169.66710937 256.65234375 168.98046875 C257.40644531 168.05878906 258.16054688 167.13710938 258.9375 166.1875 C259.76636719 165.17429687 260.59523438 164.16109375 261.44921875 163.1171875 C263.01358373 161.20512049 264.57873642 159.29370965 266.14453125 157.3828125 C268.43194789 154.5903818 270.71652563 151.79565554 273 149 C273.49016602 148.40026367 273.98033203 147.80052734 274.48535156 147.18261719 C280.26337942 140.10871617 286.01195455 133.0182863 291.625 125.8125 C295.65977334 120.63623822 299.83021629 115.59741624 304.09082031 110.60595703 C307.40222082 106.72293164 310.61568518 102.77645142 313.78515625 98.77734375 C316.60099859 95.24636684 319.45808691 91.74981266 322.3125 88.25 C326.40586395 83.22656641 330.45376675 78.173259 334.4375 73.0625 C339.19112962 66.96801293 344.08843628 60.99905462 349.01269531 55.04199219 C354.23755833 48.7208023 359.38670491 42.34736674 364.43359375 35.8828125 C365.33048419 34.73418367 366.22762764 33.58575237 367.125 32.4375 C367.5785083 31.85709961 368.0320166 31.27669922 368.49926758 30.67871094 C372.94469481 25.01798156 377.5260125 19.47191178 382.14111328 13.94897461 C382.70040527 13.27616455 383.25969727 12.60335449 383.8359375 11.91015625 C384.32626465 11.32371338 384.8165918 10.73727051 385.32177734 10.13305664 C386.9943032 8.1532764 386.9943032 8.1532764 387.86009693 6.28838158 C389.05420405 4.13491763 390.14495341 2.6314055 392 1 C395.75980252 -0.03119765 399.43082646 0.11464603 403.30786133 0.20532227 C404.44975922 0.20430008 405.5916571 0.20327789 406.76815796 0.20222473 C410.54039811 0.20709943 414.31021428 0.26154259 418.08203125 0.31640625 C420.69804054 0.32946267 423.31406696 0.33942663 425.93009949 0.34642029 C432.11043648 0.36815654 438.28990421 0.42556971 444.46985883 0.49586672 C451.50720266 0.57417464 458.54458855 0.61261252 465.58225977 0.64773476 C480.05528777 0.72085552 494.52763172 0.84393855 509 1 C509.88611788 4.79777002 510.12151456 8.30376211 510.11352539 12.19973755 C510.1134549 13.44757019 510.1133844 14.69540283 510.11331177 15.98104858 C510.10817841 17.35601839 510.10295696 18.73098786 510.09765625 20.10595703 C510.09573622 21.559936 510.09427282 23.01391564 510.0932312 24.46789551 C510.09007431 27.59392655 510.08381202 30.71993046 510.07516479 33.84595108 C510.06163484 38.78709968 510.05574688 43.72823929 510.05102539 48.66940308 C510.0399306 59.15461409 510.02038689 69.63980356 510 80.125 C509.97798806 91.45140017 509.95741296 102.77779158 509.94658184 114.10420883 C509.94159328 119.0182668 509.9317248 123.93228373 509.91815186 128.84632516 C509.91070529 131.89912612 509.90737926 134.9519214 509.9051857 138.00473022 C509.90330995 139.42252821 509.89970159 140.8403251 509.89425278 142.25811386 C509.88706003 144.19014084 509.88658425 146.12218937 509.88647461 148.05422974 C509.884254 149.13637316 509.88203339 150.21851658 509.87974548 151.33345222 C509.88306206 154.1044644 509.88306206 154.1044644 511 157 C510.68971265 159.33650964 510.3530231 161.66956437 510 164 C509.91175794 166.42848813 509.86941548 168.85897273 509.8671875 171.2890625 C509.86623077 171.95537689 509.86527405 172.62169128 509.86428833 173.30819702 C509.86361291 174.70481461 509.86542225 176.10143546 509.86962891 177.49804688 C509.87500347 179.62637397 509.86965347 181.75449171 509.86328125 183.8828125 C509.86394181 185.24739629 509.86522252 186.61197996 509.8671875 187.9765625 C509.86831543 189.20455566 509.86944336 190.43254883 509.87060547 191.69775391 C509.98444841 194.6031117 510.37893388 197.1715378 511 200 C510.84375 202.140625 510.84375 202.140625 510.5 204.25 C509.96092267 208.30655692 510.25123459 211.83699862 510.8125 215.87109375 C511.08672431 218.98468223 510.46473079 221.92115849 510 225 C510.27050453 227.00946222 510.59367909 229.01354224 511 231 C511 232.33333333 511 233.66666667 511 235 C470.74 235 430.48 235 389 235 C387.84892004 231.54676011 387.91857189 228.96711475 387.97827148 225.32543945 C387.9926828 224.31528778 387.9926828 224.31528778 388.00738525 223.284729 C388.04034246 221.06080563 388.08068709 218.83708072 388.12109375 216.61328125 C388.14539808 215.070579 388.16924149 213.52786942 388.19264221 211.9851532 C388.25545202 207.92609306 388.32452743 203.86716271 388.39489746 199.80822754 C388.46560894 195.66583158 388.53040906 191.52334364 388.59570312 187.38085938 C388.72467547 179.2538044 388.86026556 171.12687702 389 163 C388.01 163 387.02 163 386 163 C385.7225293 163.59208252 385.44505859 164.18416504 385.15917969 164.79418945 C384.07246877 166.86209871 382.93224074 168.49441328 381.453125 170.29296875 C380.94418701 170.91534424 380.43524902 171.53771973 379.91088867 172.17895508 C379.36279541 172.8417749 378.81470215 173.50459473 378.25 174.1875 C377.68450439 174.87932373 377.11900879 175.57114746 376.53637695 176.28393555 C373.39421556 180.1215815 370.2213409 183.93197799 367.02734375 187.7265625 C366.38571289 188.49331299 365.74408203 189.26006348 365.08300781 190.05004883 C363.8349413 191.53972327 362.58052343 193.02410309 361.31933594 194.50268555 C360.75375977 195.17855713 360.18818359 195.85442871 359.60546875 196.55078125 C358.84979614 197.44277222 358.84979614 197.44277222 358.07885742 198.3527832 C356.72604969 200.09009254 356.72604969 200.09009254 357 203 C356.45859375 203.1959375 355.9171875 203.391875 355.359375 203.59375 C351.97480608 205.61104274 349.73533853 208.50379728 347.25 211.5 C346.71560303 212.13365479 346.18120605 212.76730957 345.63061523 213.42016602 C342.06961852 217.65995927 338.61229024 221.9761472 335.1796875 226.3203125 C331.87858217 230.37866063 328.43328628 234.30848966 324.99731445 238.25268555 C310.45413842 254.88618036 310.45413842 254.88618036 296.8125 272.25 C292.89206205 277.53406855 288.58268612 282.37960945 284.11450195 287.20727539 C279.37713113 292.32882308 274.85072848 297.54450313 270.4765625 302.984375 C266.83129553 307.42309124 263.04485808 311.73682389 259.25244141 316.05004883 C258.44685791 316.970802 258.44685791 316.970802 257.625 317.91015625 C257.14289063 318.45808838 256.66078125 319.00602051 256.1640625 319.57055664 C254.90207419 321.01417226 254.90207419 321.01417226 254 323 C251.26373542 321.63186771 250.03463573 319.70828841 248.125 317.3125 C244.54413476 312.87795648 240.90504811 308.50800817 237.1875 304.1875 C236.68387939 303.60162109 236.18025879 303.01574219 235.66137695 302.41210938 C234.10859506 300.60719989 232.55452686 298.80340671 231 297 C219.58076112 283.75254026 219.58076112 283.75254026 214.5 277.5 C210.89230674 273.07147377 207.24853555 268.67592156 203.5625 264.3125 C202.78132813 263.37470703 202.78132813 263.37470703 201.984375 262.41796875 C200.70022882 260.90680992 199.35497792 259.44798732 198 258 C197.34 258 196.68 258 196 258 C195.9071875 257.42378906 195.814375 256.84757812 195.71875 256.25390625 C194.82643286 253.45571608 193.51088139 252.07206656 191.5 249.9375 C188.47105396 246.64003037 185.56473582 243.29496513 182.75 239.8125 C179.23509387 235.47946917 175.64278911 231.22515341 172 227 C168.46389386 222.89769624 164.97136651 218.77198103 161.5625 214.5625 C157.96363802 210.12760474 154.25264112 205.80435749 150.5 201.5 C145.9864297 196.32207783 141.56947695 191.08487705 137.24609375 185.74609375 C133.84751103 181.59095696 130.3578945 177.51479584 126.87109375 173.43359375 C123.17594936 169.0145027 119.59850689 164.49813361 116 160 C115.67 255.37 115.34 350.74 115 449 C111.83929614 449.79017596 109.65817261 450.13486952 106.49049377 450.17167664 C105.59190643 450.18435577 104.69331909 450.19703491 103.76750183 450.21009827 C102.78920914 450.21899582 101.81091644 450.22789337 100.80297852 450.23706055 C99.76679382 450.25017273 98.73060913 450.26328491 97.6630249 450.27679443 C94.23502296 450.31860146 90.80699772 450.35310513 87.37890625 450.38671875 C84.99763352 450.41237461 82.61636217 450.43815861 80.23509216 450.46406555 C75.24261269 450.51703884 70.25011132 450.56596413 65.25756836 450.61254883 C58.8571051 450.67294782 52.45688389 450.74717306 46.05661106 450.82492352 C41.13850381 450.88249471 36.22033738 450.93080511 31.30210686 450.976511 C28.94215322 450.99992813 26.58223028 451.02668529 24.22235298 451.05682945 C20.92371603 451.097957 17.62520944 451.12615741 14.32641602 451.15112305 C12.86201332 451.17357841 12.86201332 451.17357841 11.36802673 451.19648743 C10.01591599 451.20281693 10.01591599 451.20281693 8.63648987 451.20927429 C7.85723931 451.2171934 7.07798876 451.22511251 6.27512455 451.2332716 C3.58715812 450.95767076 1.48269689 450.03761794 -1 449 C-1.02286614 392.08888636 -1.04049811 335.17777317 -1.05106533 278.26665584 C-1.05231271 271.55472368 -1.05360926 264.84279152 -1.05493164 258.13085938 C-1.0550624 257.46292621 -1.05519316 256.79499304 -1.05532788 256.10681948 C-1.05959248 234.44048883 -1.06710622 212.77416078 -1.07629722 191.1078317 C-1.08598858 168.22052414 -1.09199397 145.33321761 -1.09408849 122.44590795 C-1.09546373 108.72799234 -1.09981434 95.01008419 -1.10791647 81.29217087 C-1.11318389 71.8978151 -1.1148043 62.50346322 -1.11350138 53.10910608 C-1.11285799 47.68113896 -1.11387558 42.25318493 -1.11920547 36.82522011 C-1.12404223 31.86350787 -1.1243368 26.90181762 -1.12089889 21.94010441 C-1.12047348 20.13792687 -1.12176688 18.335748 -1.12488318 16.53357311 C-1.12885234 14.09804133 -1.12676009 11.66259064 -1.12304783 9.22706032 C-1.12567484 8.51517193 -1.12830186 7.80328355 -1.13100848 7.06982279 C-1.1141458 2.2282916 -1.1141458 2.2282916 0 0 Z M509 215 C510 218 510 218 510 218 Z " fill="#005D6E" transform="translate(249,325)"/>
<path d="M0 0 C0.66 0 1.32 0 2 0 C2 0.66 2 1.32 2 2 C2.93118652 1.98747192 3.86237305 1.97494385 4.82177734 1.96203613 C13.75919788 1.84207702 22.69664655 1.72443347 31.63412476 1.60884857 C36.22484852 1.54940973 40.8155602 1.48925709 45.40625 1.42724609 C50.72913818 1.35545459 56.05205631 1.28629381 61.375 1.21875 C62.24801758 1.20751099 63.12103516 1.19627197 64.02050781 1.18469238 C73.22233523 1.06834842 82.42236197 0.9816543 91.625 1.00390625 C92.37633209 1.00555031 93.12766418 1.00719437 93.90176392 1.00888824 C97.40385812 1.01817656 100.90571803 1.03471922 104.40771484 1.06237793 C106.22843506 1.07113953 106.22843506 1.07113953 108.0859375 1.08007812 C109.6644751 1.09270691 109.6644751 1.09270691 111.27490234 1.10559082 C113.70872933 1.01128602 115.66755297 0.63511098 118 0 C118.99 0 119.98 0 121 0 C122.16035412 3.48106236 121.75252093 4.46315164 121 8 C120.61709058 11.32875923 120.30452013 14.66323685 120 18 C120.66 18.33 121.32 18.66 122 19 C121.835 19.639375 121.67 20.27875 121.5 20.9375 C120.94702392 24.32447848 120.96908052 27.4925742 121.0625 30.9140625 C121 33 121 33 120 36 C120.66 36 121.32 36 122 36 C121.835 37.051875 121.67 38.10375 121.5 39.1875 C121.10221162 42.22063639 120.91780305 44.95871271 121 48 C121 51.55490468 120.98399751 55.10922238 120.96484375 58.6640625 C120.95792562 60.63671763 120.95103021 62.609373 120.94506836 64.58203125 C120.94000949 65.94759889 120.93316423 67.31316104 120.92456055 68.67871094 C120.91246452 70.65297163 120.9072993 72.62727098 120.90234375 74.6015625 C120.89710693 75.78057129 120.89187012 76.95958008 120.88647461 78.17431641 C120.80417681 80.95080972 120.80417681 80.95080972 122 83 C121.34 83 120.68 83 120 83 C120.165 84.27101563 120.33 85.54203125 120.5 86.8515625 C121.07747674 92.04275304 121.07774366 97.15840064 121 102.375 C120.97448838 104.13275083 120.9534564 105.89057397 120.9375 107.6484375 C120.92009766 108.79578369 120.92009766 108.79578369 120.90234375 109.96630859 C120.91797076 112.20451432 120.91797076 112.20451432 122 115 C121.67 115.99 121.34 116.98 121 118 C119.35016113 118.03758423 119.35016113 118.03758423 117.66699219 118.07592773 C113.58175235 118.17018206 109.49667539 118.27035865 105.41162109 118.37231445 C103.64440728 118.41559514 101.8771535 118.45727505 100.10986328 118.49731445 C97.5679114 118.55518351 95.02615941 118.61882981 92.484375 118.68359375 C91.69569031 118.70030624 90.90700562 118.71701874 90.09442139 118.73423767 C86.58040451 118.8288914 83.38480368 119.06273524 80 120 C79.01533747 117.04601242 78.87872164 115.14750978 78.88647461 112.06958008 C78.88655014 111.06876907 78.88662567 110.06795807 78.88670349 109.03681946 C78.89186478 107.95861435 78.89702606 106.88040924 78.90234375 105.76953125 C78.90446617 104.11119514 78.90446617 104.11119514 78.90663147 102.4193573 C78.91223486 98.88371083 78.92478796 95.34812738 78.9375 91.8125 C78.94251456 89.41731862 78.94707754 87.02213625 78.95117188 84.62695312 C78.96220539 78.75128053 78.97894684 72.87564477 79 67 C78.278125 67.886875 77.55625 68.77375 76.8125 69.6875 C74.36060109 72.62915865 71.74441916 75.3261212 69 78 C68.15260254 78.84216064 67.30520508 79.68432129 66.43212891 80.55200195 C65.53929199 81.43847412 64.64645508 82.32494629 63.7265625 83.23828125 C62.21086753 84.7465923 60.69565937 86.2553905 59.18066406 87.7644043 C58.1480389 88.7920057 57.11451732 89.81870714 56.08007812 90.84448242 C50.77446473 96.10700883 45.56605159 101.38714374 40.70751953 107.07202148 C37.36271178 110.84867959 33.72162739 114.34038342 30.125 117.875 C28.60449184 119.37008161 27.08614589 120.86736644 25.5703125 122.3671875 C24.57668701 123.34341064 24.57668701 123.34341064 23.56298828 124.33935547 C21.91455548 125.93142515 21.91455548 125.93142515 21 128 C20.34 128 19.68 128 19 128 C19 128.66 19 129.32 19 130 C14.69767442 134.76744186 14.69767442 134.76744186 11 136 C10.32990009 137.33161118 9.66401103 138.66534215 9 140 C7.39094674 141.76161614 5.72229652 143.46941758 4.01953125 145.140625 C3.52845383 145.62650085 3.0373764 146.11237671 2.53141785 146.61297607 C0.96314352 148.16350303 -0.61163482 149.70719156 -2.1875 151.25 C-4.2469456 153.27256097 -6.30311332 155.29836951 -8.35546875 157.328125 C-8.85164703 157.81875931 -9.34782532 158.30939362 -9.85903931 158.81489563 C-13.25181118 162.19392482 -16.45156251 165.68700455 -19.55786133 169.32861328 C-21.51702514 171.59921349 -23.61312841 173.70972743 -25.75 175.8125 C-26.48734375 176.54082031 -27.2246875 177.26914062 -27.984375 178.01953125 C-28.64953125 178.67308594 -29.3146875 179.32664062 -30 180 C-30.46535156 180.5878125 -30.93070313 181.175625 -31.41015625 181.78125 C-33.84583484 183.6484041 -35.71930419 183.07161946 -38.6875 182.6875 C-39.68136719 182.56761719 -40.67523437 182.44773437 -41.69921875 182.32421875 C-42.45847656 182.21722656 -43.21773437 182.11023438 -44 182 C-44 182.66 -44 183.32 -44 184 C-44.66 183.67 -45.32 183.34 -46 183 C-48.69655446 182.84323225 -51.37129977 182.74163685 -54.0703125 182.68359375 C-54.86654022 182.66281265 -55.66276794 182.64203156 -56.48312378 182.62062073 C-59.03032685 182.55515851 -61.57763425 182.49625585 -64.125 182.4375 C-65.85027127 182.3943116 -67.57553193 182.35069721 -69.30078125 182.30664062 C-73.53374685 182.19948055 -77.76681753 182.09820377 -82 182 C-82.495 182.99 -82.495 182.99 -83 184 C-83.66 183.01 -84.32 182.02 -85 181 C-83.7315625 180.01 -83.7315625 180.01 -82.4375 179 C-79.25495096 176.35158507 -76.66254658 173.38454035 -73.984375 170.23828125 C-71.75095678 167.71909101 -69.39676269 165.36407957 -67 163 C-63.39858715 159.44210876 -60.0125315 155.79647402 -56.73046875 151.9453125 C-54.1991114 149.09967828 -51.45814904 146.48279791 -48.69921875 143.859375 C-46.99718288 141.99691736 -46.00326006 140.30189618 -45 138 C-44.34 138 -43.68 138 -43 138 C-41.21898537 136.22822939 -39.54394826 134.43604835 -37.875 132.5625 C-36.79254955 131.36899034 -35.70916699 130.1763256 -34.625 128.984375 C-34.04234375 128.34177734 -33.4596875 127.69917969 -32.859375 127.03710938 C-29.5663854 123.4293487 -26.22213925 119.86997212 -22.875 116.3125 C-21.85768799 115.230896 -21.85768799 115.230896 -20.81982422 114.12744141 C-15.64755603 108.64686743 -10.38705856 103.27051162 -5 98 C-5.33 97.34 -5.66 96.68 -6 96 C-5.319375 95.835 -4.63875 95.67 -3.9375 95.5 C-0.3499602 93.66806478 1.43085746 91.4099492 3.98046875 88.34375 C6.20541121 85.76161174 8.56986555 83.38957075 11 81 C13.93118191 78.10408042 16.76403174 75.19757429 19.4375 72.0625 C22.74143613 68.19619176 26.32695602 64.6436537 29.9440918 61.07543945 C33.2524012 57.79452334 36.3437237 54.39347953 39.37109375 50.85546875 C46.47654784 42.76172608 46.47654784 42.76172608 50 41 C25.25 40.505 25.25 40.505 0 40 C0 26.8 0 13.6 0 0 Z " fill="#E6B86B" transform="translate(638,592)"/>
<path d="M0 0 C15.09955455 -0.10319245 30.19853521 -0.14889804 45.29840755 -0.12697029 C52.31039986 -0.11811446 59.32143784 -0.12776539 66.33325195 -0.18164062 C73.1029338 -0.23360266 79.87101226 -0.23312091 86.64081001 -0.20095444 C89.22074329 -0.19720924 91.80076393 -0.2109062 94.38050652 -0.24249649 C115.6825323 -0.48565291 115.6825323 -0.48565291 120.53567505 3.17657471 C122.84189066 5.69478758 124.42194066 7.98798327 126 11 C126.91706276 12.24448899 127.8506081 13.47732608 128.8125 14.6875 C129.27914062 15.32816406 129.74578125 15.96882813 130.2265625 16.62890625 C132.63923216 19.85465622 135.16373994 22.98580506 137.6875 26.125 C141.83788768 31.29281815 145.96809481 36.47518029 150.0625 41.6875 C150.51520264 42.26322754 150.96790527 42.83895508 151.43432617 43.43212891 C153.65612542 46.2640072 155.85496269 49.10947431 158 52 C157.67 52.66 157.34 53.32 157 54 C155.22776281 51.91784697 153.45717274 49.83433081 151.6875 47.75 C151.18798828 47.16347656 150.68847656 46.57695312 150.17382812 45.97265625 C143 37.51609065 143 37.51609065 143 35 C142.34 35 141.68 35 141 35 C139.08996874 32.61850533 137.28385467 30.22361552 135.5 27.75 C130.85800359 21.42314649 126.05064555 15.32640456 120.9609375 9.35546875 C119 7 119 7 117 4 C78.72 3.67 40.44 3.34 1 3 C1 149.85 1 296.7 1 448 C38.29 448 75.58 448 114 448 C114 351.64 114 255.28 114 156 C118.16041646 159.46701371 120.97754873 161.92702508 124.1875 166 C127.51106277 170.15167457 130.8710824 174.25871521 134.3125 178.3125 C134.77100342 178.85326172 135.22950684 179.39402344 135.7019043 179.95117188 C139.12171081 183.97851019 142.55936118 187.99045852 146 192 C161.51281182 210.08114154 161.51281182 210.08114154 166.9375 216.9375 C170.66895817 221.64770129 174.57175813 226.19574373 178.49658203 230.74438477 C182.40717602 235.28446184 186.2111681 239.90280308 189.98828125 244.5546875 C192.32599466 247.39625759 194.74885417 250.15148342 197.1875 252.90625 C200.13167445 256.30727911 202.94442151 259.8148183 205.77734375 263.30859375 C208.35943564 266.43523928 211.04514113 269.45286369 213.78515625 272.44140625 C215 274 215 274 215 276 C215.66 276 216.32 276 217 276 C218.74064913 278.0700428 220.37842807 280.15198241 222 282.3125 C226.28709131 287.9058034 230.78605901 293.16635216 235.58203125 298.3359375 C239.57614814 302.73656386 243.2708031 307.37520857 247 312 C248.65839866 314.00712736 250.32789773 316.00426503 252 318 C253.65 317.67 255.3 317.34 257 317 C256 319 255 321 254 323 C251.26373542 321.63186771 250.03463573 319.70828841 248.125 317.3125 C244.54413476 312.87795648 240.90504811 308.50800817 237.1875 304.1875 C236.68387939 303.60162109 236.18025879 303.01574219 235.66137695 302.41210938 C234.10859506 300.60719989 232.55452686 298.80340671 231 297 C219.58076112 283.75254026 219.58076112 283.75254026 214.5 277.5 C210.89230674 273.07147377 207.24853555 268.67592156 203.5625 264.3125 C202.78132813 263.37470703 202.78132813 263.37470703 201.984375 262.41796875 C200.70022882 260.90680992 199.35497792 259.44798732 198 258 C197.34 258 196.68 258 196 258 C195.9071875 257.42378906 195.814375 256.84757812 195.71875 256.25390625 C194.82643286 253.45571608 193.51088139 252.07206656 191.5 249.9375 C188.47105396 246.64003037 185.56473582 243.29496513 182.75 239.8125 C179.23509387 235.47946917 175.64278911 231.22515341 172 227 C168.46389386 222.89769624 164.97136651 218.77198103 161.5625 214.5625 C157.96363802 210.12760474 154.25264112 205.80435749 150.5 201.5 C145.9864297 196.32207783 141.56947695 191.08487705 137.24609375 185.74609375 C133.84751103 181.59095696 130.3578945 177.51479584 126.87109375 173.43359375 C123.17594936 169.0145027 119.59850689 164.49813361 116 160 C115.67 255.37 115.34 350.74 115 449 C111.83929614 449.79017596 109.65817261 450.13486952 106.49049377 450.17167664 C105.59190643 450.18435577 104.69331909 450.19703491 103.76750183 450.21009827 C102.78920914 450.21899582 101.81091644 450.22789337 100.80297852 450.23706055 C99.76679382 450.25017273 98.73060913 450.26328491 97.6630249 450.27679443 C94.23502296 450.31860146 90.80699772 450.35310513 87.37890625 450.38671875 C84.99763352 450.41237461 82.61636217 450.43815861 80.23509216 450.46406555 C75.24261269 450.51703884 70.25011132 450.56596413 65.25756836 450.61254883 C58.8571051 450.67294782 52.45688389 450.74717306 46.05661106 450.82492352 C41.13850381 450.88249471 36.22033738 450.93080511 31.30210686 450.976511 C28.94215322 450.99992813 26.58223028 451.02668529 24.22235298 451.05682945 C20.92371603 451.097957 17.62520944 451.12615741 14.32641602 451.15112305 C12.86201332 451.17357841 12.86201332 451.17357841 11.36802673 451.19648743 C10.01591599 451.20281693 10.01591599 451.20281693 8.63648987 451.20927429 C7.85723931 451.2171934 7.07798876 451.22511251 6.27512455 451.2332716 C3.58715812 450.95767076 1.48269689 450.03761794 -1 449 C-1.02286614 392.08888636 -1.04049811 335.17777317 -1.05106533 278.26665584 C-1.05231271 271.55472368 -1.05360926 264.84279152 -1.05493164 258.13085938 C-1.0550624 257.46292621 -1.05519316 256.79499304 -1.05532788 256.10681948 C-1.05959248 234.44048883 -1.06710622 212.77416078 -1.07629722 191.1078317 C-1.08598858 168.22052414 -1.09199397 145.33321761 -1.09408849 122.44590795 C-1.09546373 108.72799234 -1.09981434 95.01008419 -1.10791647 81.29217087 C-1.11318389 71.8978151 -1.1148043 62.50346322 -1.11350138 53.10910608 C-1.11285799 47.68113896 -1.11387558 42.25318493 -1.11920547 36.82522011 C-1.12404223 31.86350787 -1.1243368 26.90181762 -1.12089889 21.94010441 C-1.12047348 20.13792687 -1.12176688 18.335748 -1.12488318 16.53357311 C-1.12885234 14.09804133 -1.12676009 11.66259064 -1.12304783 9.22706032 C-1.12567484 8.51517193 -1.12830186 7.80328355 -1.13100848 7.06982279 C-1.1141458 2.2282916 -1.1141458 2.2282916 0 0 Z " fill="#063741" transform="translate(249,325)"/>
<path d="M0 0 C1.14189789 -0.00102219 2.28379578 -0.00204437 3.46029663 -0.00309753 C7.23253678 0.00177716 11.00235295 0.05622032 14.77416992 0.11108398 C17.39017922 0.12414041 20.00620563 0.13410436 22.62223816 0.14109802 C28.80257515 0.16283428 34.98204289 0.22024744 41.1619975 0.29054445 C48.19934133 0.36885237 55.23672722 0.40729026 62.27439845 0.4424125 C76.74742644 0.51553325 91.2197704 0.63861629 105.69213867 0.79467773 C106.57825655 4.59244775 106.81365323 8.09843985 106.80566406 11.99441528 C106.80559357 13.24224792 106.80552307 14.49008057 106.80545044 15.77572632 C106.80031709 17.15069612 106.79509564 18.5256656 106.78979492 19.90063477 C106.78787489 21.35461374 106.78641149 22.80859337 106.78536987 24.26257324 C106.78221298 27.38860428 106.77595069 30.51460819 106.76730347 33.64062881 C106.75377351 38.58177741 106.74788556 43.52291702 106.74316406 48.46408081 C106.73206928 58.94929182 106.71252556 69.43448129 106.69213867 79.91967773 C106.67012674 91.24607791 106.64955163 102.57246931 106.63872051 113.89888656 C106.63373195 118.81294453 106.62386347 123.72696147 106.61029053 128.64100289 C106.60284397 131.69380386 106.59951794 134.74659913 106.59732437 137.79940796 C106.59544862 139.21720595 106.59184026 140.63500284 106.58639145 142.0527916 C106.5791987 143.98481857 106.57872293 145.91686711 106.57861328 147.84890747 C106.57639267 148.93105089 106.57417206 150.01319431 106.57188416 151.12812996 C106.57520074 153.89914213 106.57520074 153.89914213 107.69213867 156.79467773 C107.38185132 159.13118738 107.04516177 161.4642421 106.69213867 163.79467773 C106.60389661 166.22316586 106.56155415 168.65365046 106.55932617 171.08374023 C106.55836945 171.75005463 106.55741272 172.41636902 106.556427 173.10287476 C106.55575159 174.49949234 106.55756092 175.89611319 106.56176758 177.29272461 C106.56714214 179.4210517 106.56179214 181.54916944 106.55541992 183.67749023 C106.55608049 185.04207403 106.5573612 186.40665769 106.55932617 187.77124023 C106.56101807 189.61322998 106.56101807 189.61322998 106.56274414 191.49243164 C106.67658708 194.39778944 107.07107256 196.96621554 107.69213867 199.79467773 C107.53588867 201.93530273 107.53588867 201.93530273 107.19213867 204.04467773 C106.65306134 208.10123466 106.94337326 211.63167636 107.50463867 215.66577148 C107.77886298 218.77935997 107.15686947 221.71583622 106.69213867 224.79467773 C106.9626432 226.80413995 107.28581777 228.80821997 107.69213867 230.79467773 C107.69213867 232.12801107 107.69213867 233.4613444 107.69213867 234.79467773 C67.43213867 234.79467773 27.17213867 234.79467773 -14.30786133 234.79467773 C-15.492042 231.24213572 -15.38767626 228.5027308 -15.32958984 224.75292969 C-15.3199823 224.04048096 -15.31037476 223.32803223 -15.30047607 222.59399414 C-15.26750749 220.24021455 -15.22716711 217.8866218 -15.18676758 215.53295898 C-15.16246436 213.90057534 -15.1386209 212.26818478 -15.11521912 210.63578796 C-15.05239821 206.33999769 -14.98332591 202.04432971 -14.91296387 197.74865723 C-14.84226243 193.36496549 -14.77745629 188.98118707 -14.7121582 184.59741211 C-14.58317155 175.99640467 -14.44758246 167.39551746 -14.30786133 158.79467773 C-13.97786133 158.79467773 -13.64786133 158.79467773 -13.30786133 158.79467773 C-13.30786133 182.88467773 -13.30786133 206.97467773 -13.30786133 231.79467773 C25.63213867 231.79467773 64.57213867 231.79467773 104.69213867 231.79467773 C104.69213867 156.22467773 104.69213867 80.65467773 104.69213867 2.79467773 C85.98526367 2.62967773 67.27838867 2.46467773 48.00463867 2.29467773 C42.11918213 2.2012207 36.23372559 2.10776367 30.16992188 2.01147461 C24.84918611 2.004577 24.84918611 2.004577 19.52848816 2.0189209 C17.17632814 2.01513244 14.82408148 1.980022 12.47270203 1.91931152 C-2.14492808 1.07288341 -2.14492808 1.07288341 -14.68325806 7.28979492 C-17.59913847 10.58182245 -19.96661419 14.09617188 -22.171381 17.89396667 C-23.72973406 20.50024047 -25.6078921 22.7856301 -27.55786133 25.10717773 C-28.1637207 25.86514648 -28.76958008 26.62311523 -29.39379883 27.40405273 C-30.02543945 28.19295898 -30.65708008 28.98186523 -31.30786133 29.79467773 C-32.10450195 30.78983398 -32.90114258 31.78499023 -33.72192383 32.81030273 C-34.94008789 34.31850586 -34.94008789 34.31850586 -36.18286133 35.85717773 C-36.9227832 36.7762793 -37.66270508 37.69538086 -38.42504883 38.64233398 C-40.30786133 40.79467773 -40.30786133 40.79467773 -42.30786133 41.79467773 C-40.68913737 38.1697693 -38.48178524 35.24142372 -36.05786133 32.10717773 C-35.41554565 31.27645752 -35.41554565 31.27645752 -34.76025391 30.42895508 C-30.36504371 24.78803531 -25.80668093 19.28081974 -21.21899414 13.79589844 C-20.6540625 13.11744873 -20.08913086 12.43899902 -19.50708008 11.73999023 C-19.01038818 11.14718262 -18.51369629 10.554375 -18.00195312 9.94360352 C-16.31491377 7.95111898 -16.31491377 7.95111898 -15.44621468 6.08150959 C-11.74055035 -0.60292107 -7.10745183 -0.16622934 0 0 Z M105.69213867 214.79467773 C106.69213867 217.79467773 106.69213867 217.79467773 106.69213867 217.79467773 Z " fill="#14383F" transform="translate(652.307861328125,325.205322265625)"/>
<path d="M0 0 C4.16041646 3.46701371 6.97754873 5.92702508 10.1875 10 C13.51106277 14.15167457 16.8710824 18.25871521 20.3125 22.3125 C20.77100342 22.85326172 21.22950684 23.39402344 21.7019043 23.95117188 C25.12171081 27.97851019 28.55936118 31.99045852 32 36 C47.51281182 54.08114154 47.51281182 54.08114154 52.9375 60.9375 C56.66895817 65.64770129 60.57175813 70.19574373 64.49658203 74.74438477 C68.40717602 79.28446184 72.2111681 83.90280308 75.98828125 88.5546875 C78.32599466 91.39625759 80.74885417 94.15148342 83.1875 96.90625 C86.13167445 100.30727911 88.94442151 103.8148183 91.77734375 107.30859375 C94.35943564 110.43523928 97.04514113 113.45286369 99.78515625 116.44140625 C101 118 101 118 101 120 C101.66 120 102.32 120 103 120 C104.74064913 122.0700428 106.37842807 124.15198241 108 126.3125 C112.28709131 131.9058034 116.78605901 137.16635216 121.58203125 142.3359375 C125.57614814 146.73656386 129.2708031 151.37520857 133 156 C134.65839866 158.00712736 136.32789773 160.00426503 138 162 C139.65 161.67 141.3 161.34 143 161 C142 163 141 165 140 167 C137.26373542 165.63186771 136.03463573 163.70828841 134.125 161.3125 C130.54413476 156.87795648 126.90504811 152.50800817 123.1875 148.1875 C122.68387939 147.60162109 122.18025879 147.01574219 121.66137695 146.41210938 C120.10859506 144.60719989 118.55452686 142.80340671 117 141 C105.58076112 127.75254026 105.58076112 127.75254026 100.5 121.5 C96.89230674 117.07147377 93.24853555 112.67592156 89.5625 108.3125 C89.04171875 107.68730469 88.5209375 107.06210937 87.984375 106.41796875 C86.70022882 104.90680992 85.35497792 103.44798732 84 102 C83.34 102 82.68 102 82 102 C81.9071875 101.42378906 81.814375 100.84757813 81.71875 100.25390625 C80.82643286 97.45571608 79.51088139 96.07206656 77.5 93.9375 C74.47105396 90.64003037 71.56473582 87.29496513 68.75 83.8125 C65.23509387 79.47946917 61.64278911 75.22515341 58 71 C54.46389386 66.89769624 50.97136651 62.77198103 47.5625 58.5625 C43.96363802 54.12760474 40.25264112 49.80435749 36.5 45.5 C31.9864297 40.32207783 27.56947695 35.08487705 23.24609375 29.74609375 C19.84751103 25.59095696 16.3578945 21.51479584 12.87109375 17.43359375 C9.17594936 13.0145027 5.59850689 8.49813361 2 4 C1.67 98.05 1.34 192.1 1 289 C0.67 289 0.34 289 0 289 C0 193.63 0 98.26 0 0 Z " fill="#03202B" transform="translate(363,481)"/>
<path d="M0 0 C1.14189789 -0.00102219 2.28379578 -0.00204437 3.46029663 -0.00309753 C7.23253678 0.00177716 11.00235295 0.05622032 14.77416992 0.11108398 C17.39017922 0.12414041 20.00620563 0.13410436 22.62223816 0.14109802 C28.80257515 0.16283428 34.98204289 0.22024744 41.1619975 0.29054445 C48.19934133 0.36885237 55.23672722 0.40729026 62.27439845 0.4424125 C76.74742644 0.51553325 91.2197704 0.63861629 105.69213867 0.79467773 C106.39044546 3.95973693 106.81834063 6.90122425 106.82585144 10.14091492 C106.83224892 11.3963913 106.83224892 11.3963913 106.83877563 12.67723083 C106.83832245 13.58183548 106.83786926 14.48644012 106.83740234 15.41845703 C106.84076096 16.38157806 106.84411957 17.3446991 106.84757996 18.33700562 C106.85706461 21.51431574 106.85903142 24.69157309 106.86010742 27.86889648 C106.86332028 30.07656374 106.86668438 32.28423078 106.87019348 34.49189758 C106.87617748 39.11439508 106.87803398 43.7368739 106.87744141 48.359375 C106.87733949 54.29479384 106.89102499 60.23009383 106.90821362 66.16548443 C106.91930364 70.72152767 106.92136159 75.27754182 106.92083168 79.83359718 C106.92201505 82.0229515 106.92645667 84.2123065 106.93416405 86.40164757 C106.94390921 89.45421207 106.94110834 92.50651373 106.93505859 95.55908203 C106.9406781 96.46975937 106.94629761 97.38043671 106.9520874 98.31871033 C106.92045807 104.56635834 106.92045807 104.56635834 104.69213867 106.79467773 C104.69213867 72.47467773 104.69213867 38.15467773 104.69213867 2.79467773 C83.58024599 2.50045623 83.58024599 2.50045623 62.46895695 2.36345482 C54.91345785 2.34133714 47.36056188 2.29581692 39.80615234 2.16040039 C33.17902646 2.04169121 26.55486824 2.00786727 19.92647362 2.02445984 C17.40546246 2.01715731 14.88436463 1.98200298 12.36416054 1.9178009 C-2.1972506 1.08333721 -2.1972506 1.08333721 -14.68325806 7.28979492 C-17.59913847 10.58182245 -19.96661419 14.09617188 -22.171381 17.89396667 C-23.72973406 20.50024047 -25.6078921 22.7856301 -27.55786133 25.10717773 C-28.1637207 25.86514648 -28.76958008 26.62311523 -29.39379883 27.40405273 C-30.02543945 28.19295898 -30.65708008 28.98186523 -31.30786133 29.79467773 C-32.10450195 30.78983398 -32.90114258 31.78499023 -33.72192383 32.81030273 C-34.94008789 34.31850586 -34.94008789 34.31850586 -36.18286133 35.85717773 C-36.9227832 36.7762793 -37.66270508 37.69538086 -38.42504883 38.64233398 C-40.30786133 40.79467773 -40.30786133 40.79467773 -42.30786133 41.79467773 C-40.68913737 38.1697693 -38.48178524 35.24142372 -36.05786133 32.10717773 C-35.41554565 31.27645752 -35.41554565 31.27645752 -34.76025391 30.42895508 C-30.36504371 24.78803531 -25.80668093 19.28081974 -21.21899414 13.79589844 C-20.6540625 13.11744873 -20.08913086 12.43899902 -19.50708008 11.73999023 C-19.01038818 11.14718262 -18.51369629 10.554375 -18.00195312 9.94360352 C-16.31491377 7.95111898 -16.31491377 7.95111898 -15.44621468 6.08150959 C-11.74055035 -0.60292107 -7.10745183 -0.16622934 0 0 Z " fill="#05323B" transform="translate(652.307861328125,325.205322265625)"/>
<path d="M0 0 C0.66 0 1.32 0 2 0 C2 0.66 2 1.32 2 2 C2.93118652 1.98747192 3.86237305 1.97494385 4.82177734 1.96203613 C13.75919788 1.84207702 22.69664655 1.72443347 31.63412476 1.60884857 C36.22484852 1.54940973 40.8155602 1.48925709 45.40625 1.42724609 C50.72913818 1.35545459 56.05205631 1.28629381 61.375 1.21875 C62.24801758 1.20751099 63.12103516 1.19627197 64.02050781 1.18469238 C73.22233523 1.06834842 82.42236197 0.9816543 91.625 1.00390625 C92.37633209 1.00555031 93.12766418 1.00719437 93.90176392 1.00888824 C97.40385812 1.01817656 100.90571803 1.03471922 104.40771484 1.06237793 C105.62152832 1.06821899 106.8353418 1.07406006 108.0859375 1.08007812 C109.6644751 1.09270691 109.6644751 1.09270691 111.27490234 1.10559082 C113.70872933 1.01128602 115.66755297 0.63511098 118 0 C118.99 0 119.98 0 121 0 C122.16035412 3.48106236 121.75252093 4.46315164 121 8 C120.61709058 11.32875923 120.30452013 14.66323685 120 18 C120.66 18.33 121.32 18.66 122 19 C121.835 19.639375 121.67 20.27875 121.5 20.9375 C120.94702392 24.32447848 120.96908052 27.4925742 121.0625 30.9140625 C121 33 121 33 120 36 C120.66 36 121.32 36 122 36 C121.835 37.051875 121.67 38.10375 121.5 39.1875 C121.10221162 42.22063639 120.91780305 44.95871271 121 48 C121 51.55490468 120.98399751 55.10922238 120.96484375 58.6640625 C120.95792562 60.63671763 120.95103021 62.609373 120.94506836 64.58203125 C120.94000949 65.94759889 120.93316423 67.31316104 120.92456055 68.67871094 C120.91246452 70.65297163 120.9072993 72.62727098 120.90234375 74.6015625 C120.89448853 76.37007568 120.89448853 76.37007568 120.88647461 78.17431641 C120.80417681 80.95080972 120.80417681 80.95080972 122 83 C121.34 83 120.68 83 120 83 C120.165 84.27101563 120.33 85.54203125 120.5 86.8515625 C121.07747674 92.04275304 121.07774366 97.15840064 121 102.375 C120.97448838 104.13275083 120.9534564 105.89057397 120.9375 107.6484375 C120.92589844 108.41333496 120.91429687 109.17823242 120.90234375 109.96630859 C120.91797076 112.20451432 120.91797076 112.20451432 122 115 C121.505 116.485 121.505 116.485 121 118 C119.90010742 118.02505615 118.80021484 118.0501123 117.66699219 118.07592773 C113.58175235 118.17018206 109.49667539 118.27035865 105.41162109 118.37231445 C103.64440728 118.41559514 101.8771535 118.45727505 100.10986328 118.49731445 C97.5679114 118.55518351 95.02615941 118.61882981 92.484375 118.68359375 C91.69569031 118.70030624 90.90700562 118.71701874 90.09442139 118.73423767 C86.58040451 118.8288914 83.38480368 119.06273524 80 120 C78.97899956 116.93699869 78.90989091 114.99288066 78.97827148 111.79418945 C78.99836777 110.73331619 79.01846405 109.67244293 79.03916931 108.579422 C79.06620438 107.43559555 79.09323944 106.2917691 79.12109375 105.11328125 C79.15651024 103.35506294 79.15651024 103.35506294 79.19264221 101.56132507 C79.26931389 97.81159459 79.35332356 94.0620688 79.4375 90.3125 C79.49071715 87.77279653 79.54345757 85.23308302 79.59570312 82.69335938 C79.72493384 76.46211249 79.86019219 70.23101806 80 64 C80.33 64 80.66 64 81 64 C81 81.49 81 98.98 81 117 C93.54 117 106.08 117 119 117 C119 79.38 119 41.76 119 3 C80.06 3 41.12 3 1 3 C1 14.88 1 26.76 1 39 C17.5 39 34 39 51 39 C51 39.33 51 39.66 51 40 C34.17 40 17.34 40 0 40 C0 26.8 0 13.6 0 0 Z " fill="#A98048" transform="translate(638,592)"/>
<path d="M0 0 C0.66 0 1.32 0 2 0 C3.48142929 1.75996248 4.88243816 3.58766884 6.25 5.4375 C11.06927242 11.87077833 16.12811672 18.07965457 21.26464844 24.26147461 C21.83602539 24.94991455 22.40740234 25.63835449 22.99609375 26.34765625 C23.50325928 26.95617432 24.0104248 27.56469238 24.53295898 28.19165039 C26 30 26 30 27.50024414 32.16577148 C28.95899361 34.2831438 28.95899361 34.2831438 32 35 C32.37706129 36.32163296 32.70518348 37.65762445 33 39 C34.11821704 40.74692174 34.11821704 40.74692174 35.5546875 42.3984375 C36.08199463 43.03612061 36.60930176 43.67380371 37.15258789 44.33081055 C38.00518188 45.34268433 38.00518188 45.34268433 38.875 46.375 C40.05959555 47.80516039 41.24317047 49.23616671 42.42578125 50.66796875 C43.02342285 51.38903809 43.62106445 52.11010742 44.23681641 52.85302734 C46.89637254 56.09148437 49.48380411 59.38452149 52.0625 62.6875 C55.63772595 67.26669495 55.63772595 67.26669495 59.30859375 71.76953125 C61 74 61 74 61 76 C61.66 76 62.32 76 63 76 C64.55800725 77.86290104 66.0039328 79.73180555 67.4375 81.6875 C71.04789727 86.50490981 74.76702921 91.18121422 78.6875 95.75 C82.3889717 100.06612862 85.96625944 104.44168804 89.3671875 109 C91.41531314 111.50870892 93.68421058 113.73916151 96 116 C96.54527344 115.33355469 97.09054687 114.66710937 97.65234375 113.98046875 C98.40644531 113.05878906 99.16054688 112.13710938 99.9375 111.1875 C100.76636719 110.17429687 101.59523438 109.16109375 102.44921875 108.1171875 C104.01358373 106.20512049 105.57873642 104.29370965 107.14453125 102.3828125 C109.43194789 99.5903818 111.71652563 96.79565554 114 94 C114.49016602 93.40026367 114.98033203 92.80052734 115.48535156 92.18261719 C121.26337942 85.10871617 127.01195455 78.0182863 132.625 70.8125 C136.65459649 65.64287967 140.81760001 60.60856545 145.07543945 55.62573242 C148.54260524 51.56351673 151.89031643 47.4195904 155.20703125 43.234375 C157.73056179 40.08958313 160.35437947 37.04246361 163 34 C163.66 34.33 164.32 34.66 165 35 C164.32195312 35.78761719 163.64390625 36.57523437 162.9453125 37.38671875 C158.15150773 42.98643853 153.44990322 48.62192142 149 54.5 C145.21489843 59.49672468 141.25401 64.29937629 137.17358398 69.05688477 C133.8607037 72.93672475 130.68816695 76.90581012 127.5625 80.9375 C123.83430327 85.74173994 119.98634383 90.4078347 116 95 C111.83317964 99.80206853 107.79837054 104.68415911 103.875 109.6875 C103.41351563 110.27595703 102.95203125 110.86441406 102.4765625 111.47070312 C100.5594159 113.93354356 98.73218717 116.40171925 97 119 C96.01 119 95.02 119 94 119 C92.4140625 117.375 92.4140625 117.375 90.625 115 C89.92503906 114.09121094 89.22507812 113.18242187 88.50390625 112.24609375 C88.11090332 111.73288574 87.71790039 111.21967773 87.31298828 110.69091797 C84.78580008 107.43630557 82.1670326 104.25527434 79.5625 101.0625 C78.43097956 99.67058106 77.29946902 98.27865408 76.16796875 96.88671875 C73.5800159 93.70811277 70.97923171 90.54028702 68.375 87.375 C64.6401578 82.81849251 61.00134865 78.19266123 57.37329102 73.55126953 C52.66694039 67.54534938 47.84759322 61.63332246 43.02734375 55.71875 C39.32095068 51.17057382 35.62805311 46.61102317 32 42 C31.43539063 41.29359375 30.87078125 40.5871875 30.2890625 39.859375 C29 38 29 38 29 36 C28.34 36 27.68 36 27 36 C25.51857071 34.24003752 24.11756184 32.41233116 22.75 30.5625 C17.93072758 24.12922167 12.87188328 17.92034543 7.73535156 11.73852539 C7.16397461 11.05008545 6.59259766 10.36164551 6.00390625 9.65234375 C5.49674072 9.04382568 4.9895752 8.43530762 4.46704102 7.80834961 C0 2.30204693 0 2.30204693 0 0 Z " fill="#03333F" transform="translate(408,380)"/>
<path d="M0 0 C15.09955455 -0.10319245 30.19853521 -0.14889804 45.29840755 -0.12697029 C52.31039986 -0.11811446 59.32143784 -0.12776539 66.33325195 -0.18164062 C73.1029338 -0.23360266 79.87101226 -0.23312091 86.64081001 -0.20095444 C89.22074329 -0.19720924 91.80076393 -0.2109062 94.38050652 -0.24249649 C115.6825323 -0.48565291 115.6825323 -0.48565291 120.53567505 3.17657471 C122.84189066 5.69478758 124.42194066 7.98798327 126 11 C126.91706276 12.24448899 127.8506081 13.47732608 128.8125 14.6875 C129.27914062 15.32816406 129.74578125 15.96882813 130.2265625 16.62890625 C132.63923216 19.85465622 135.16373994 22.98580506 137.6875 26.125 C141.83788768 31.29281815 145.96809481 36.47518029 150.0625 41.6875 C150.51520264 42.26322754 150.96790527 42.83895508 151.43432617 43.43212891 C153.65612542 46.2640072 155.85496269 49.10947431 158 52 C157.67 52.66 157.34 53.32 157 54 C155.22776281 51.91784697 153.45717274 49.83433081 151.6875 47.75 C151.18798828 47.16347656 150.68847656 46.57695312 150.17382812 45.97265625 C143 37.51609065 143 37.51609065 143 35 C142.34 35 141.68 35 141 35 C139.08996874 32.61850533 137.28385467 30.22361552 135.5 27.75 C130.85800359 21.42314649 126.05064555 15.32640456 120.9609375 9.35546875 C119 7 119 7 117 4 C114.85058915 3.53778064 114.85058915 3.53778064 112.31771851 3.60127258 C111.33051315 3.58873444 110.3433078 3.57619629 109.32618713 3.5632782 C108.23934128 3.56471329 107.15249542 3.56614838 106.03271484 3.56762695 C104.89125504 3.5574353 103.74979523 3.54724365 102.57374573 3.53674316 C98.78609409 3.50645466 94.99869466 3.49732287 91.2109375 3.48828125 C88.59061838 3.47144636 85.97030739 3.45329775 83.3500061 3.43388367 C77.14876383 3.3901614 70.94754797 3.36164977 64.7461983 3.33856028 C57.68695765 3.31153916 50.627854 3.26762587 43.56871104 3.22227156 C29.04588759 3.12934342 14.52300557 3.05770019 0 3 C0 2.01 0 1.02 0 0 Z " fill="#093F4B" transform="translate(249,325)"/>
<path d="M0 0 C0.33 0 0.66 0 1 0 C1 1.65 1 3.3 1 5 C38.29 5 75.58 5 114 5 C114.33 4.01 114.66 3.02 115 2 C115 3.32 115 4.64 115 6 C112.1016511 6.82534758 109.50032315 7.13670366 106.49049377 7.17167664 C105.59190643 7.18435577 104.69331909 7.19703491 103.76750183 7.21009827 C102.78920914 7.21899582 101.81091644 7.22789337 100.80297852 7.23706055 C99.76679382 7.25017273 98.73060913 7.26328491 97.6630249 7.27679443 C94.23502296 7.31860146 90.80699772 7.35310513 87.37890625 7.38671875 C84.99763352 7.41237461 82.61636217 7.43815861 80.23509216 7.46406555 C75.24261269 7.51703884 70.25011132 7.56596413 65.25756836 7.61254883 C58.8571051 7.67294782 52.45688389 7.74717306 46.05661106 7.82492352 C41.13850381 7.88249471 36.22033738 7.93080511 31.30210686 7.976511 C28.94215322 7.99992813 26.58223028 8.02668529 24.22235298 8.05682945 C20.92371603 8.097957 17.62520944 8.12615741 14.32641602 8.15112305 C12.86201332 8.17357841 12.86201332 8.17357841 11.36802673 8.19648743 C6.80436043 8.21785085 3.13289482 8.20740917 -1 6 C-0.67 4.02 -0.34 2.04 0 0 Z " fill="#053742" transform="translate(249,768)"/>
<path d="M0 0 C1.56224853 0.01306362 3.12452584 0.02302419 4.68681335 0.03001404 C8.78931524 0.05668087 12.89006896 0.12538723 16.99188232 0.20294189 C21.1811966 0.27468333 25.37079475 0.30654855 29.56054688 0.34179688 C37.7742378 0.4167632 45.98651053 0.53615616 54.19921875 0.68359375 C54.19921875 1.01359375 54.19921875 1.34359375 54.19921875 1.68359375 C52.23637939 1.72117798 52.23637939 1.72117798 50.23388672 1.75952148 C45.26491476 1.85543815 40.29602473 1.95516749 35.32714844 2.0559082 C33.19793648 2.09857554 31.06870496 2.14027996 28.93945312 2.1809082 C23.75627897 2.28011357 18.57425948 2.39364115 13.39208984 2.53637695 C9.25745321 2.64897688 5.13069323 2.6887302 0.99462891 2.68041992 C-0.96843426 2.70411897 -2.93148839 2.72858142 -4.89453125 2.75390625 C-6.23150558 2.72864113 -6.23150558 2.72864113 -7.5954895 2.7028656 C-12.64084831 2.81267347 -15.27053795 3.59678234 -18.91943359 7.18457031 C-21.22370546 9.83100461 -23.36941751 12.52572347 -25.18359375 15.53515625 C-27.27881255 18.88539452 -29.51961376 21.95278342 -32.05078125 24.99609375 C-32.65664063 25.7540625 -33.2625 26.51203125 -33.88671875 27.29296875 C-34.51835938 28.081875 -35.15 28.87078125 -35.80078125 29.68359375 C-36.59742188 30.67875 -37.3940625 31.67390625 -38.21484375 32.69921875 C-39.43300781 34.20742188 -39.43300781 34.20742188 -40.67578125 35.74609375 C-41.41570313 36.66519531 -42.155625 37.58429688 -42.91796875 38.53125 C-44.80078125 40.68359375 -44.80078125 40.68359375 -46.80078125 41.68359375 C-45.18205729 38.05868531 -42.97470516 35.13033974 -40.55078125 31.99609375 C-39.90846558 31.16537354 -39.90846558 31.16537354 -39.25317383 30.31787109 C-34.85796363 24.67695133 -30.29960086 19.16973576 -25.71191406 13.68481445 C-25.14698242 13.00636475 -24.58205078 12.32791504 -24 11.62890625 C-23.50330811 11.03609863 -23.00661621 10.44329102 -22.49487305 9.83251953 C-20.77957821 7.85014633 -20.77957821 7.85014633 -20.04417419 5.90336609 C-16.13714404 -1.95990712 -7.58390181 -0.18567565 0 0 Z " fill="#0D4E5B" transform="translate(656.80078125,325.31640625)"/>
<path d="M0 0 C3.73724331 1.50493019 5.58268345 3.61662432 8.0625 6.75 C8.84753906 7.73484375 9.63257813 8.7196875 10.44140625 9.734375 C11.29509362 10.82227152 12.14793059 11.91083579 13 13 C13.90480627 14.15115302 14.80975708 15.30219243 15.71484375 16.453125 C17.11505889 18.23519459 18.51415049 20.01809724 19.91015625 21.8034668 C22.74843836 25.42911452 25.63136664 29.01102095 28.5625 32.5625 C33.52912254 38.59082809 38.26850649 44.78682794 43 51 C42.505 51.99 42.505 51.99 42 53 C40.22776281 50.91784697 38.45717274 48.83433081 36.6875 46.75 C36.18798828 46.16347656 35.68847656 45.57695312 35.17382812 44.97265625 C28 36.51609065 28 36.51609065 28 34 C27.34 34 26.68 34 26 34 C24.08996874 31.61850533 22.28385467 29.22361552 20.5 26.75 C15.85800359 20.42314649 11.05064555 14.32640456 5.9609375 8.35546875 C4 6 4 6 2 3 C1.01 2.34 0.02 1.68 -1 1 C-0.67 0.67 -0.34 0.34 0 0 Z " fill="#04323E" transform="translate(364,326)"/>
<path d="M0 0 C0 4.21754564 -2.33178676 6.35999625 -4.875 9.5 C-5.37241699 10.12366455 -5.86983398 10.7473291 -6.38232422 11.38989258 C-10.27009223 16.21538579 -14.37846669 20.80555509 -18.59375 25.34765625 C-21.81402692 28.89727968 -24.80691037 32.61150216 -27.81640625 36.33984375 C-31.09340113 40.3320325 -34.53235604 44.17330843 -38 48 C-38 43.52615447 -35.05392746 41.34481143 -32.1875 38.1875 C-27.70089603 33.14160536 -23.36904232 28.0380315 -19.25 22.6875 C-15.34884159 17.63749097 -11.27053951 12.83428536 -6.94921875 8.1328125 C-4.53736945 5.49379503 -2.25949853 2.76970787 0 0 Z " fill="#092F39" transform="translate(595,535)"/>
<path d="M0 0 C0 3.5307257 -0.52494406 4.02226762 -2.6875 6.6875 C-3.32300781 7.47769531 -3.95851563 8.26789063 -4.61328125 9.08203125 C-5.40089844 10.04496094 -6.18851563 11.00789063 -7 12 C-8.01488944 13.25344776 -9.02916962 14.50738897 -10.04296875 15.76171875 C-13.35155993 19.84966915 -16.67414685 23.92608891 -20 28 C-20.45793945 28.56138672 -20.91587891 29.12277344 -21.38769531 29.70117188 C-25.56597838 34.82252572 -29.75518692 39.93361019 -34 45 C-34 40.76864547 -31.6246449 38.63843793 -29.0625 35.5 C-28.55960449 34.87270996 -28.05670898 34.24541992 -27.53857422 33.59912109 C-26.03352402 31.72626502 -24.51852148 29.86194174 -23 28 C-22.24847656 27.07445312 -21.49695313 26.14890625 -20.72265625 25.1953125 C-19.31107012 23.46565948 -17.8956292 21.73914601 -16.4765625 20.015625 C-12.713666 15.43367532 -8.98406065 10.82472451 -5.25244141 6.21728516 C-4.44685791 5.22414307 -4.44685791 5.22414307 -3.625 4.2109375 C-3.14289062 3.61587402 -2.66078125 3.02081055 -2.1640625 2.40771484 C-1 1 -1 1 0 0 Z " fill="#04333F" transform="translate(608,368)"/>
<path d="M0 0 C0.33 0 0.66 0 1 0 C0.98259766 1.42892578 0.98259766 1.42892578 0.96484375 2.88671875 C0.95582031 4.14097656 0.94679688 5.39523437 0.9375 6.6875 C0.92589844 7.92886719 0.91429687 9.17023437 0.90234375 10.44921875 C0.98564838 13.47817521 1.40642423 16.05207327 2 19 C1.84375 21.140625 1.84375 21.140625 1.5 23.25 C0.96092267 27.30655692 1.25123459 30.83699862 1.8125 34.87109375 C2.08672431 37.98468223 1.46473079 40.92115849 1 44 C1.30262289 46.00487668 1.62913819 48.00661779 2 50 C1.67 50.66 1.34 51.32 1 52 C-0.32 51.67 -1.64 51.34 -3 51 C-2.34 51 -1.68 51 -1 51 C-1.00222061 50.43481155 -1.00444122 49.86962311 -1.00672913 49.28730774 C-1.02887261 43.39865756 -1.04394447 37.51001923 -1.05493164 31.62133789 C-1.05995675 29.4243929 -1.06677788 27.22745124 -1.07543945 25.03051758 C-1.08758475 21.87059708 -1.09324659 18.71072085 -1.09765625 15.55078125 C-1.10281754 14.57039383 -1.10797882 13.59000641 -1.11329651 12.57991028 C-1.11337204 11.65933334 -1.11344757 10.73875641 -1.11352539 9.7902832 C-1.115746 8.9842012 -1.11796661 8.1781192 -1.12025452 7.34761047 C-0.99073534 4.81913526 -0.55273825 2.46773852 0 0 Z M0 34 C1 37 1 37 1 37 Z " fill="#0E363C" transform="translate(758,506)"/>
<path d="M0 0 C0.495 1.485 0.495 1.485 1 3 C0.41734375 3.51046875 -0.1653125 4.0209375 -0.765625 4.546875 C-9.80015411 12.55862723 -18.5114561 20.90511334 -26.3359375 30.1171875 C-28.88283701 32.99889071 -31.63775005 35.66052225 -34.3984375 38.3359375 C-36.08628724 39.92422733 -36.08628724 39.92422733 -37 42 C-37.66 41.67 -38.32 41.34 -39 41 C-35.47018764 36.85247047 -31.88266149 32.8219949 -28 29 C-25.48238304 26.52074673 -23.09909278 24.00559816 -20.8125 21.3125 C-15.57282123 15.20362218 -9.72541503 9.64792821 -4 4 C-4.495 3.01 -4.495 3.01 -5 2 C-3.35 1.34 -1.7 0.68 0 0 Z " fill="#C49757" transform="translate(637,686)"/>
<path d="M0 0 C0.66 0.33 1.32 0.66 2 1 C1.62302979 1.45737549 1.24605957 1.91475098 0.85766602 2.38598633 C-0.26916708 3.7533157 -1.39586399 5.1207573 -2.52246094 6.48828125 C-3.80265033 8.04200422 -5.0832516 9.59538791 -6.36425781 11.1484375 C-9.21117749 14.60221955 -12.05494382 18.05770308 -14.86328125 21.54296875 C-15.65089844 22.51878906 -16.43851563 23.49460937 -17.25 24.5 C-17.93578125 25.3559375 -18.6215625 26.211875 -19.328125 27.09375 C-21 29 -21 29 -23 30 C-18.08676614 18.92530529 -7.86088233 9.131177 0 0 Z " fill="#04333F" transform="translate(633,337)"/>
<path d="M0 0 C1.56139206 0.0001133 1.56139206 0.0001133 3.15432739 0.00022888 C4.28144135 0.00539017 5.4085553 0.01055145 6.56982422 0.01586914 C7.72118866 0.01728409 8.8725531 0.01869904 10.05880737 0.02015686 C13.74740158 0.02576823 17.43593576 0.03832269 21.12451172 0.05102539 C23.62060459 0.05603892 26.11669842 0.06060208 28.61279297 0.06469727 C34.7417198 0.07574136 40.87061147 0.0924906 46.99951172 0.11352539 C46.99951172 0.77352539 46.99951172 1.43352539 46.99951172 2.11352539 C43.79935316 3.18024491 42.11406878 3.06198011 38.81201172 2.67602539 C37.91095703 2.57418945 37.00990234 2.47235352 36.08154297 2.36743164 C35.0509375 2.24174805 35.0509375 2.24174805 33.99951172 2.11352539 C33.99951172 2.77352539 33.99951172 3.43352539 33.99951172 4.11352539 C33.33951172 3.78352539 32.67951172 3.45352539 31.99951172 3.11352539 C29.30295726 2.95675764 26.62821195 2.85516224 23.92919922 2.79711914 C23.1329715 2.77633804 22.33674377 2.75555695 21.51638794 2.73414612 C18.96918487 2.6686839 16.42187747 2.60978124 13.87451172 2.55102539 C12.14924045 2.50783699 10.42397979 2.4642226 8.69873047 2.42016602 C4.46576487 2.31300595 0.23269419 2.21172916 -4.00048828 2.11352539 C-4.33048828 2.77352539 -4.66048828 3.43352539 -5.00048828 4.11352539 C-5.66048828 3.12352539 -6.32048828 2.13352539 -7.00048828 1.11352539 C-4.49499383 -0.13922184 -2.80313196 -0.00677085 0 0 Z " fill="#B58E53" transform="translate(560.00048828125,771.886474609375)"/>
<path d="M0 0 C0 4.10991523 -2.15627484 5.88050092 -4.75 8.8125 C-5.75394579 9.97001779 -6.75785052 11.1275712 -7.76171875 12.28515625 C-8.28942871 12.88859863 -8.81713867 13.49204102 -9.36083984 14.11376953 C-11.03472974 16.03996454 -12.68600552 17.98355272 -14.33203125 19.93359375 C-15.14172363 20.89011841 -15.14172363 20.89011841 -15.96777344 21.8659668 C-17.01820483 23.10696176 -18.06707407 24.34928094 -19.11425781 25.59301758 C-22.77381691 29.88690845 -22.77381691 29.88690845 -25 31 C-23.64268597 28.00863801 -22.0881749 25.79405164 -19.875 23.375 C-17.16123126 20.3465914 -14.58037563 17.25578211 -12.0625 14.0625 C-8.21846435 9.21043934 -4.16093464 4.58145463 0 0 Z " fill="#082F37" transform="translate(532,610)"/>
<path d="M0 0 C7.92 0 15.84 0 24 0 C25.39368258 6.96841292 25.15473556 13.07158662 24 20 C23.67 20 23.34 20 23 20 C23 14.06 23 8.12 23 2 C11.615 1.505 11.615 1.505 0 1 C0 0.67 0 0.34 0 0 Z " fill="#0D424D" transform="translate(734,326)"/>
<path d="M0 0 C0 4.14411848 -1.76386635 5.39674972 -4.4375 8.5 C-7.85918092 12.38360653 -7.85918092 12.38360653 -10 17 C-11.65002828 18.35386936 -13.3174387 19.68678142 -15 21 C-15.66 21.99 -16.32 22.98 -17 24 C-17.66 24 -18.32 24 -19 24 C-17.72296757 21.25021564 -16.34750772 19.03950753 -14.35546875 16.7578125 C-13.84306641 16.16613281 -13.33066406 15.57445312 -12.80273438 14.96484375 C-12.26970703 14.35769531 -11.73667969 13.75054688 -11.1875 13.125 C-10.13893712 11.91960633 -9.09075636 10.71388014 -8.04296875 9.5078125 C-7.53556152 8.92547852 -7.0281543 8.34314453 -6.50537109 7.74316406 C-4.30139296 5.19103888 -2.14932034 2.59825416 0 0 Z " fill="#09313A" transform="translate(553,585)"/>
<path d="M0 0 C0 4.07587476 -1.25991672 4.98590839 -4 8 C-5.93497203 9.75448657 -7.90799364 11.45651896 -9.89453125 13.15234375 C-13.08273024 15.95015102 -16.04379146 18.96064809 -19 22 C-19 19 -19 19 -17.83837891 17.52954102 C-17.30647949 17.02608154 -16.77458008 16.52262207 -16.2265625 16.00390625 C-15.3603125 15.16569336 -15.3603125 15.16569336 -14.4765625 14.31054688 C-13.86554687 13.73369141 -13.25453125 13.15683594 -12.625 12.5625 C-11.4250639 11.4228171 -10.22958365 10.27842056 -9.0390625 9.12890625 C-8.23782959 8.37202515 -8.23782959 8.37202515 -7.42041016 7.59985352 C-5.86791015 5.85122296 -4.95423159 4.12559545 -4 2 C-3.34 2 -2.68 2 -2 2 C-1.34 1.34 -0.68 0.68 0 0 Z " fill="#C29859" transform="translate(597,728)"/>
<path d="M0 0 C0 4.72121319 -3.27188821 7.15053624 -6.25 10.625 C-8.29659952 12.9108436 -8.29659952 12.9108436 -8 16 C-8.598125 16.2475 -9.19625 16.495 -9.8125 16.75 C-12.28777159 18.16444091 -13.33430804 19.72860188 -15 22 C-15.66 22 -16.32 22 -17 22 C-15.30988226 17.93377555 -12.47829582 14.84754453 -9.625 11.5625 C-8.65822916 10.43933976 -7.69207366 9.31564954 -6.7265625 8.19140625 C-6.26540039 7.65531738 -5.80423828 7.11922852 -5.32910156 6.56689453 C-3.50454201 4.41589835 -1.74670283 2.21442183 0 0 Z " fill="#073843" transform="translate(614,512)"/>
<path d="M0 0 C0.66 0.33 1.32 0.66 2 1 C1.28714844 1.70125 0.57429687 2.4025 -0.16015625 3.125 C-5.66651948 8.56978587 -11.0160937 14.06353823 -16 20 C-16.66 19.67 -17.32 19.34 -18 19 C-16.12660182 16.95684406 -14.25133366 14.91545741 -12.375 12.875 C-11.59189453 12.02035156 -11.59189453 12.02035156 -10.79296875 11.1484375 C-7.28415811 7.33639631 -3.68571182 3.641439 0 0 Z " fill="#EDC170" transform="translate(687,635)"/>
<path d="M0 0 C0 4.35001099 -2.57519135 6.6880429 -5.1875 9.9375 C-5.67025391 10.55818359 -6.15300781 11.17886719 -6.65039062 11.81835938 C-9.47498383 15.37848423 -12.29972491 18.30089623 -16 21 C-14.41660944 17.39291777 -12.20193384 14.64232061 -9.6875 11.625 C-8.88828125 10.66207031 -8.0890625 9.69914062 -7.265625 8.70703125 C-6.51796875 7.81371094 -5.7703125 6.92039062 -5 6 C-4.15695312 4.98486328 -4.15695312 4.98486328 -3.296875 3.94921875 C-2.20123813 2.63004678 -1.10129656 1.31445073 0 0 Z " fill="#062F39" transform="translate(632,490)"/>
<path d="M0 0 C0 3.54957438 -0.48588719 3.88424715 -2.84375 6.35546875 C-3.72353516 7.28842773 -3.72353516 7.28842773 -4.62109375 8.24023438 C-5.24113281 8.88283203 -5.86117187 9.52542969 -6.5 10.1875 C-7.43005859 11.16879883 -7.43005859 11.16879883 -8.37890625 12.16992188 C-9.9127616 13.78636944 -11.45321411 15.39593746 -13 17 C-13.66 16.67 -14.32 16.34 -15 16 C-12.68778773 13.52056484 -10.37518185 11.04149716 -8.0625 8.5625 C-7.40314453 7.85544922 -6.74378906 7.14839844 -6.06445312 6.41992188 C-5.43603516 5.74638672 -4.80761719 5.07285156 -4.16015625 4.37890625 C-3.57886963 3.7557251 -2.99758301 3.13254395 -2.39868164 2.49047852 C-1.609971 1.65000401 -0.81500364 0.81500364 0 0 Z " fill="#EEC271" transform="translate(625,700)"/>
<path d="M0 0 C5.65596939 4.24197704 9.71924631 9.4045986 14 15 C13.67 15.66 13.34 16.32 13 17 C11.3936298 15.2519799 9.78986703 13.50168356 8.1875 11.75 C7.73568359 11.25886719 7.28386719 10.76773437 6.81835938 10.26171875 C0 2.79636177 0 2.79636177 0 0 Z " fill="#03353F" transform="translate(363,481)"/>
<path d="M0 0 C0.33 0 0.66 0 1 0 C0.98839844 0.95261719 0.97679687 1.90523438 0.96484375 2.88671875 C0.95582031 4.14097656 0.94679688 5.39523437 0.9375 6.6875 C0.92009766 8.54955078 0.92009766 8.54955078 0.90234375 10.44921875 C0.89433196 13.89094959 0.89433196 13.89094959 1.56640625 16.76953125 C2 19 2 19 1 22 C-1 20 -1 20 -1.23046875 16.69921875 C-1.22647678 15.36190842 -1.21171815 14.02459698 -1.1875 12.6875 C-1.18105469 11.37136719 -1.17460938 10.05523438 -1.16796875 8.69921875 C-1.02973512 5.6548642 -0.71349651 2.95102158 0 0 Z " fill="#0D454E" transform="translate(758,506)"/>
<path d="M0 0 C0 4.20547571 -2.36738124 6.16710361 -5 9.1875 C-5.47695313 9.74630859 -5.95390625 10.30511719 -6.4453125 10.88085938 C-7.62366206 12.25952836 -8.81098952 13.63051472 -10 15 C-10.33 14.01 -10.66 13.02 -11 12 C-7.37 8.04 -3.74 4.08 0 0 Z " fill="#0B3740" transform="translate(532,610)"/>
<path d="M0 0 C0.7425 0.804375 1.485 1.60875 2.25 2.4375 C5.22010717 5.26294092 5.22010717 5.26294092 9 6 C9.66 5.67 10.32 5.34 11 5 C10 7 9 9 8 11 C5.50887505 9.75443753 4.53958835 8.28597187 2.875 6.0625 C2.33617187 5.35222656 1.79734375 4.64195312 1.2421875 3.91015625 C0 2 0 2 0 0 Z " fill="#0B3A43" transform="translate(495,637)"/>
<path d="M0 0 C1.98 0 3.96 0 6 0 C7.09658936 3.28976808 6.79953138 4.71303767 6 8 C5.34 8 4.68 8 4 8 C4 6.35 4 4.7 4 3 C2.35 2.67 0.7 2.34 -1 2 C-0.67 1.34 -0.34 0.68 0 0 Z " fill="#B0925C" transform="translate(753,592)"/>
<path d="M0 0 C0 3 0 3 -2.5 5.6875 C-3.325 6.450625 -4.15 7.21375 -5 8 C-5 6.02 -5 4.04 -5 2 C-4.01 2 -3.02 2 -2 2 C-1.34 1.34 -0.68 0.68 0 0 Z " fill="#D4A861" transform="translate(597,728)"/>
<path d="M0 0 C1.32 0.33 2.64 0.66 4 1 C3.21625 1.598125 2.4325 2.19625 1.625 2.8125 C-1.14574323 4.91085249 -1.14574323 4.91085249 -3 8 C-3.66 8 -4.32 8 -5 8 C-3.62845496 5.04590299 -2.01136276 2.55991624 0 0 Z " fill="#0F3D47" transform="translate(539,601)"/>
<path d="M0 0 C0.66 0.33 1.32 0.66 2 1 C0.02 3.31 -1.96 5.62 -4 8 C-4.33 7.01 -4.66 6.02 -5 5 C-3.35 3.35 -1.7 1.7 0 0 Z " fill="#0A3C46" transform="translate(585,547)"/>
<path d="M0 0 C1.5625 1.75 1.5625 1.75 3 4 C2.6875 6.25 2.6875 6.25 2 8 C0.68 7.67 -0.64 7.34 -2 7 C-1.34 7 -0.68 7 0 7 C0 4.69 0 2.38 0 0 Z " fill="#1D4044" transform="translate(757,550)"/>
<path d="M0 0 C0.99 0.33 1.98 0.66 3 1 C2.01 1.66 1.02 2.32 0 3 C0 2.01 0 1.02 0 0 Z " fill="#E0B36A" transform="translate(608,712)"/>
<path d="M0 0 C4 1 4 1 4 1 Z " fill="#D2AB68" transform="translate(600,775)"/>
<path d="M0 0 C4 1 4 1 4 1 Z " fill="#BCA167" transform="translate(558,775)"/>
<path d="M0 0 C1 4 1 4 1 4 Z " fill="#E6B96D" transform="translate(716,691)"/>
<path d="M0 0 C1 4 1 4 1 4 Z " fill="#E9BB6E" transform="translate(716,667)"/>
<path d="M0 0 C3 1 3 1 3 1 Z " fill="#D5AD6A" transform="translate(596,775)"/>
<path d="M0 0 C3 1 3 1 3 1 Z " fill="#D9B168" transform="translate(752,711)"/>
<path d="" fill="#CCAA6D" transform="translate(0,0)"/>
<path d="" fill="#BBA36C" transform="translate(0,0)"/>
<path d="M0 0 C0.33 0.66 0.66 1.32 1 2 C0.34 1.67 -0.32 1.34 -1 1 C-0.67 0.67 -0.34 0.34 0 0 Z " fill="#9F966D" transform="translate(636,593)"/>
<path d="M0 0 C0.66 0.66 1.32 1.32 2 2 C1.34 2 0.68 2 0 2 C0 1.34 0 0.68 0 0 Z " fill="#1B676F" transform="translate(565,574)"/>
<path d="M0 0 C2 1 2 1 2 1 Z " fill="#D7B06B" transform="translate(589,775)"/>
<path d="M0 0 C2 1 2 1 2 1 Z " fill="#D8AE6A" transform="translate(584,775)"/>
<path d="M0 0 C2 1 2 1 2 1 Z " fill="#D7AF6C" transform="translate(580,775)"/>
<path d="M0 0 C2 1 2 1 2 1 Z " fill="#D4AF6A" transform="translate(576,775)"/>
<path d="M0 0 C2 1 2 1 2 1 Z " fill="#D3AD6C" transform="translate(573,775)"/>
<path d="M0 0 C2 1 2 1 2 1 Z " fill="#CBA66A" transform="translate(565,775)"/>
<path d="" fill="#E1B468" transform="translate(0,0)"/>
<path d="M0 0 C2 1 2 1 2 1 Z " fill="#D5AD6A" transform="translate(576,744)"/>
<path d="" fill="#DDB36B" transform="translate(0,0)"/>
<path d="M0 0 C2 1 2 1 2 1 Z " fill="#E1B46C" transform="translate(624,696)"/>
<path d="" fill="#E3B86D" transform="translate(0,0)"/>
<path d="" fill="#E8BB6E" transform="translate(0,0)"/>
<path d="" fill="#C8A86B" transform="translate(0,0)"/>
<path d="" fill="#AE9C6C" transform="translate(0,0)"/>
<path d="M0 0 C2 1 2 1 2 1 Z " fill="#BCA76B" transform="translate(749,592)"/>
<path d="M0 0 C2 1 2 1 2 1 Z " fill="#BFA76D" transform="translate(741,592)"/>
<path d="M0 0 C2 1 2 1 2 1 Z " fill="#C3A96C" transform="translate(733,592)"/>
<path d="M0 0 C2 1 2 1 2 1 Z " fill="#C5AA6D" transform="translate(701,592)"/>
<path d="M0 0 C2 1 2 1 2 1 Z " fill="#C4A86C" transform="translate(694,592)"/>
<path d="M0 0 C2 1 2 1 2 1 Z " fill="#C4AA6E" transform="translate(685,592)"/>
<path d="M0 0 C2 1 2 1 2 1 Z " fill="#B8A46B" transform="translate(654,592)"/>
<path d="M0 0 C2 1 2 1 2 1 Z " fill="#AD9F6C" transform="translate(645,592)"/>
<path d="" fill="#3B4A4B" transform="translate(0,0)"/>
<path d="" fill="#D0A764" transform="translate(0,0)"/>
<path d="" fill="#D8B06B" transform="translate(0,0)"/>
<path d="" fill="#D3AD6A" transform="translate(0,0)"/>
<path d="" fill="#C6A769" transform="translate(0,0)"/>
<path d="" fill="#116171" transform="translate(0,0)"/>
<path d="" fill="#CBA868" transform="translate(0,0)"/>
<path d="" fill="#D9AF6D" transform="translate(0,0)"/>
<path d="" fill="#E1B46A" transform="translate(0,0)"/>
<path d="" fill="#D4AC69" transform="translate(0,0)"/>
<path d="" fill="#D9AF67" transform="translate(0,0)"/>
<path d="" fill="#E0B56B" transform="translate(0,0)"/>
<path d="" fill="#D7AE6A" transform="translate(0,0)"/>
<path d="" fill="#D8B06C" transform="translate(0,0)"/>
<path d="" fill="#DBB06B" transform="translate(0,0)"/>
<path d="" fill="#DCB06A" transform="translate(0,0)"/>
<path d="" fill="#D4AF6B" transform="translate(0,0)"/>
<path d="" fill="#DEB268" transform="translate(0,0)"/>
<path d="" fill="#E0B46A" transform="translate(0,0)"/>
<path d="" fill="#DCB169" transform="translate(0,0)"/>
<path d="" fill="#DAB06A" transform="translate(0,0)"/>
<path d="" fill="#DDB46A" transform="translate(0,0)"/>
<path d="" fill="#E1B36A" transform="translate(0,0)"/>
<path d="" fill="#DFB46B" transform="translate(0,0)"/>
<path d="" fill="#DDB269" transform="translate(0,0)"/>
<path d="" fill="#E0B46C" transform="translate(0,0)"/>
<path d="" fill="#E4BB6E" transform="translate(0,0)"/>
<path d="" fill="#D7AE65" transform="translate(0,0)"/>
<path d="" fill="#E0B66E" transform="translate(0,0)"/>
<path d="" fill="#DFB570" transform="translate(0,0)"/>
<path d="" fill="#DDB66C" transform="translate(0,0)"/>
<path d="" fill="#E0B56E" transform="translate(0,0)"/>
<path d="" fill="#DFB66E" transform="translate(0,0)"/>
<path d="" fill="#DFB46B" transform="translate(0,0)"/>
<path d="" fill="#DAB26C" transform="translate(0,0)"/>
<path d="" fill="#DDB26C" transform="translate(0,0)"/>
<path d="" fill="#DFB36A" transform="translate(0,0)"/>
<path d="" fill="#E1B56C" transform="translate(0,0)"/>
<path d="" fill="#DFB46A" transform="translate(0,0)"/>
<path d="" fill="#E3B76C" transform="translate(0,0)"/>
<path d="" fill="#E4B96D" transform="translate(0,0)"/>
<path d="" fill="#E5B96D" transform="translate(0,0)"/>
<path d="" fill="#DBB66F" transform="translate(0,0)"/>
<path d="" fill="#DCB56E" transform="translate(0,0)"/>
<path d="" fill="#E5BA6D" transform="translate(0,0)"/>
<path d="" fill="#E7BB6F" transform="translate(0,0)"/>
<path d="" fill="#E4B46D" transform="translate(0,0)"/>
<path d="" fill="#E7B96C" transform="translate(0,0)"/>
<path d="" fill="#E8BA6F" transform="translate(0,0)"/>
<path d="" fill="#DEB46D" transform="translate(0,0)"/>
<path d="" fill="#DEB66D" transform="translate(0,0)"/>
<path d="" fill="#DEB56D" transform="translate(0,0)"/>
<path d="" fill="#DFB76E" transform="translate(0,0)"/>
<path d="" fill="#E5B669" transform="translate(0,0)"/>
<path d="" fill="#EBBF6F" transform="translate(0,0)"/>
<path d="" fill="#E7B76B" transform="translate(0,0)"/>
<path d="" fill="#E0B66E" transform="translate(0,0)"/>
<path d="" fill="#E0B76D" transform="translate(0,0)"/>
<path d="" fill="#DFB66E" transform="translate(0,0)"/>
<path d="" fill="#E0B76D" transform="translate(0,0)"/>
<path d="" fill="#E1B76F" transform="translate(0,0)"/>
<path d="" fill="#E6BA6D" transform="translate(0,0)"/>
<path d="" fill="#E7BB6E" transform="translate(0,0)"/>
<path d="" fill="#19636C" transform="translate(0,0)"/>
<path d="" fill="#28666B" transform="translate(0,0)"/>
<path d="" fill="#135F6B" transform="translate(0,0)"/>
<path d="" fill="#1C676F" transform="translate(0,0)"/>
<path d="" fill="#135F6D" transform="translate(0,0)"/>
<path d="" fill="#15636C" transform="translate(0,0)"/>
<path d="" fill="#DFB56F" transform="translate(0,0)"/>
<path d="" fill="#125F6C" transform="translate(0,0)"/>
<path d="" fill="#126371" transform="translate(0,0)"/>
<path d="" fill="#12606C" transform="translate(0,0)"/>
<path d="" fill="#C5AA6B" transform="translate(0,0)"/>
<path d="" fill="#C3A96D" transform="translate(0,0)"/>
<path d="" fill="#11606C" transform="translate(0,0)"/>
<path d="" fill="#0D5E6D" transform="translate(0,0)"/>
<path d="" fill="#D7B16E" transform="translate(0,0)"/>
<path d="" fill="#1F686F" transform="translate(0,0)"/>
<path d="" fill="#216B6F" transform="translate(0,0)"/>
<path d="" fill="#086170" transform="translate(0,0)"/>
<path d="" fill="#CBAD6F" transform="translate(0,0)"/>
<path d="" fill="#256870" transform="translate(0,0)"/>
<path d="" fill="#0D5C69" transform="translate(0,0)"/>
<path d="" fill="#AA9A69" transform="translate(0,0)"/>
<path d="" fill="#0A5F6D" transform="translate(0,0)"/>
<path d="" fill="#9B956C" transform="translate(0,0)"/>
<path d="" fill="#BBA86C" transform="translate(0,0)"/>
<path d="" fill="#C4AA6E" transform="translate(0,0)"/>
<path d="" fill="#C6A970" transform="translate(0,0)"/>
<path d="" fill="#C2AA6D" transform="translate(0,0)"/>
<path d="" fill="#C4A96C" transform="translate(0,0)"/>
<path d="" fill="#C3AA6E" transform="translate(0,0)"/>
<path d="" fill="#BEA76D" transform="translate(0,0)"/>
<path d="" fill="#1B636D" transform="translate(0,0)"/>
<path d="" fill="#0A5B69" transform="translate(0,0)"/>
<path d="" fill="#0E606F" transform="translate(0,0)"/>
<path d="" fill="#0B606E" transform="translate(0,0)"/>
<path d="" fill="#0D6170" transform="translate(0,0)"/>
<path d="" fill="#0E606D" transform="translate(0,0)"/>
<path d="" fill="#0C616D" transform="translate(0,0)"/>
<path d="" fill="#1E6870" transform="translate(0,0)"/>
<path d="" fill="#1C656D" transform="translate(0,0)"/>
<path d="" fill="#366C70" transform="translate(0,0)"/>
<path d="" fill="#2F6B6E" transform="translate(0,0)"/>
<path d="" fill="#3D7471" transform="translate(0,0)"/>
<path d="" fill="#337678" transform="translate(0,0)"/>
<path d="" fill="#347377" transform="translate(0,0)"/>
<path d="" fill="#085C6A" transform="translate(0,0)"/>
<path d="" fill="#216973" transform="translate(0,0)"/>
<path d="" fill="#1A646F" transform="translate(0,0)"/>
<path d="" fill="#0A6371" transform="translate(0,0)"/>
<path d="" fill="#1E6872" transform="translate(0,0)"/>
<path d="" fill="#096471" transform="translate(0,0)"/>
<path d="" fill="#096172" transform="translate(0,0)"/>
<path d="" fill="#12666F" transform="translate(0,0)"/>
<path d="" fill="#1C6A76" transform="translate(0,0)"/>
<path d="" fill="#0A626F" transform="translate(0,0)"/>
<path d="" fill="#166773" transform="translate(0,0)"/>
<path d="" fill="#0B6171" transform="translate(0,0)"/>
<path d="" fill="#0F626F" transform="translate(0,0)"/>
<path d="" fill="#0E5F6E" transform="translate(0,0)"/>
<path d="" fill="#0B6070" transform="translate(0,0)"/>
<path d="" fill="#095F70" transform="translate(0,0)"/>
<path d="" fill="#176C77" transform="translate(0,0)"/>
<path d="" fill="#0F6375" transform="translate(0,0)"/>
<path d="" fill="#096271" transform="translate(0,0)"/>
<path d="" fill="#075E6D" transform="translate(0,0)"/>
<path d="" fill="#0B5F6C" transform="translate(0,0)"/>
<path d="" fill="#0E6A77" transform="translate(0,0)"/>
<path d="" fill="#0A5F71" transform="translate(0,0)"/>
<path d="" fill="#086271" transform="translate(0,0)"/>
<path d="" fill="#08616D" transform="translate(0,0)"/>
<path d="" fill="#096372" transform="translate(0,0)"/>
<path d="" fill="#075D6D" transform="translate(0,0)"/>
<path d="" fill="#0A5E6C" transform="translate(0,0)"/>
<path d="" fill="#08626E" transform="translate(0,0)"/>
<path d="" fill="#07616E" transform="translate(0,0)"/>
<path d="" fill="#0B606E" transform="translate(0,0)"/>
<path d="" fill="#0A5D6F" transform="translate(0,0)"/>
<path d="" fill="#08606E" transform="translate(0,0)"/>
<path d="" fill="#086270" transform="translate(0,0)"/>
<path d="" fill="#065B6D" transform="translate(0,0)"/>
<path d="" fill="#0E616F" transform="translate(0,0)"/>
<path d="" fill="#0A5F6B" transform="translate(0,0)"/>
<path d="" fill="#0C5E6B" transform="translate(0,0)"/>
<path d="" fill="#095F6F" transform="translate(0,0)"/>
<path d="" fill="#0B616D" transform="translate(0,0)"/>
<path d="" fill="#0E5E6B" transform="translate(0,0)"/>
<path d="" fill="#086170" transform="translate(0,0)"/>
<path d="" fill="#095F6F" transform="translate(0,0)"/>
<path d="" fill="#08606F" transform="translate(0,0)"/>
<path d="" fill="#0A626F" transform="translate(0,0)"/>
<path d="" fill="#445153" transform="translate(0,0)"/>
<path d="" fill="#0F5C6C" transform="translate(0,0)"/>
<path d="" fill="#0D606D" transform="translate(0,0)"/>
<path d="" fill="#0D5B6B" transform="translate(0,0)"/>
<path d="" fill="#0C5F6F" transform="translate(0,0)"/>
<path d="" fill="#0E616D" transform="translate(0,0)"/>
<path d="" fill="#195968" transform="translate(0,0)"/>
<path d="" fill="#4A5152" transform="translate(0,0)"/>
</svg>
